<svg width="42" height="38" viewBox="0 0 42 38" fill="none" xmlns="http://www.w3.org/2000/svg">
<path d="M37.6668 4.41667H31.0001L28.5001 1.625C27.7084 0.75 26.5834 0.25 25.3959 0.25H16.6042C15.4167 0.25 14.2917 0.75 13.5001 1.625L11.0001 4.41667H4.33342C2.04175 4.41667 0.166748 6.29167 0.166748 8.58333V33.5833C0.166748 35.875 2.04175 37.75 4.33342 37.75H37.6668C39.9584 37.75 41.8334 35.875 41.8334 33.5833V8.58333C41.8334 6.29167 39.9584 4.41667 37.6668 4.41667ZM37.6668 31.5C37.6668 32.6458 36.7293 33.5833 35.5834 33.5833H21.0001V31.5C15.1667 31.5 10.5834 26.9167 10.5834 21.0833C10.5834 15.25 15.1667 10.6667 21.0001 10.6667V8.58333H35.5834C36.7293 8.58333 37.6668 9.52083 37.6668 10.6667V31.5ZM31.4167 21.0833C31.4167 15.25 26.8334 10.6667 21.0001 10.6667V14.4167C24.7501 14.4167 27.6667 17.3333 27.6667 21.0833C27.6667 24.8333 24.7501 27.75 21.0001 27.75V31.5C26.8334 31.5 31.4167 26.9167 31.4167 21.0833ZM14.3334 21.0833C14.3334 24.8333 17.2501 27.75 21.0001 27.75V14.4167C17.2501 14.4167 14.3334 17.3333 14.3334 21.0833Z" fill="#FF7A00"/>
</svg>
