<svg width="70" height="70" viewBox="0 0 70 70" fill="none" xmlns="http://www.w3.org/2000/svg">
<circle cx="35" cy="35" r="35" fill="#FCFCFC"/>
<path d="M35 15C31.0444 15 27.1776 16.173 23.8886 18.3706C20.5996 20.5682 18.0362 23.6918 16.5224 27.3463C15.0087 31.0009 14.6126 35.0222 15.3843 38.9018C16.156 42.7814 18.0608 46.3451 20.8579 49.1421C23.6549 51.9392 27.2186 53.844 31.0982 54.6157C34.9778 55.3874 38.9992 54.9913 42.6537 53.4776C46.3082 51.9638 49.4318 49.4004 51.6294 46.1114C53.827 42.8224 55 38.9556 55 35C55 29.6957 52.8929 24.6086 49.1421 20.8579C45.3914 17.1071 40.3043 15 35 15ZM31.6667 23.5833C31.6667 22.9241 31.8622 22.2796 32.2284 21.7314C32.5947 21.1833 33.1153 20.756 33.7244 20.5037C34.3335 20.2514 35.0037 20.1854 35.6503 20.314C36.2969 20.4427 36.8909 20.7601 37.357 21.2263C37.8232 21.6925 38.1407 22.2864 38.2693 22.933C38.3979 23.5796 38.3319 24.2499 38.0796 24.8589C37.8273 25.468 37.4001 25.9886 36.8519 26.3549C36.3037 26.7212 35.6593 26.9167 35 26.9167C34.5484 26.9393 34.097 26.8698 33.6732 26.7124C33.2493 26.555 32.8619 26.3131 32.5345 26.0013C32.2071 25.6895 31.9465 25.3143 31.7687 24.8987C31.5909 24.483 31.4994 24.0355 31.5 23.5833H31.6667ZM43.3333 45C43.3333 45.442 43.1577 45.8659 42.8452 46.1785C42.5326 46.4911 42.1087 46.6667 41.6667 46.6667H30C29.558 46.6667 29.1341 46.4911 28.8215 46.1785C28.5089 45.8659 28.3333 45.442 28.3333 45C28.3333 44.558 28.5089 44.134 28.8215 43.8215C29.1341 43.5089 29.558 43.3333 30 43.3333H33.3333V33.3333H31.6667C31.2246 33.3333 30.8007 33.1577 30.4882 32.8452C30.1756 32.5326 30 32.1087 30 31.6667C30 31.2246 30.1756 30.8007 30.4882 30.4882C30.8007 30.1756 31.2246 30 31.6667 30H38.3333V43.3333H41.6667C42.1087 43.3333 42.5326 43.5089 42.8452 43.8215C43.1577 44.134 43.3333 44.558 43.3333 45Z" fill="#FBBC04"/>
</svg>
