<svg width="30" height="30" viewBox="0 0 30 30" fill="none" xmlns="http://www.w3.org/2000/svg">
<path d="M30 15C30 23.2843 23.2843 30 15 30C6.71573 30 0 23.2843 0 15C0 6.71573 6.71573 0 15 0C23.2843 0 30 6.71573 30 15Z" fill="#FCFCFC" fill-opacity="0.8"/>
<path d="M24.5812 10.1966C24.468 9.77269 24.2474 9.3889 23.943 9.08604C23.6299 8.77386 23.2462 8.55055 22.8281 8.43719C21.2633 8.00434 14.9942 8.00434 14.9942 8.00434C12.3806 7.97313 9.76773 8.11039 7.17022 8.41533C6.7521 8.53707 6.36913 8.76536 6.05537 9.07992C5.74708 9.39123 5.52378 9.77511 5.40713 10.1957C5.12691 11.78 4.99076 13.3887 5.00051 15C4.99052 16.6099 5.12633 18.218 5.40713 19.8043C5.52128 20.2231 5.74375 20.6053 6.05287 20.914C6.362 21.2226 6.74695 21.4456 7.17022 21.5637C8.75584 21.9957 14.9942 21.9957 14.9942 21.9957C17.611 22.0269 20.2273 21.8896 22.8281 21.5847C23.2462 21.4713 23.6299 21.248 23.943 20.9358C24.2513 20.6271 24.4704 20.2432 24.5804 19.8252C24.8679 18.2416 25.0077 16.6322 24.9978 15.0201C25.0194 13.4011 24.8798 11.7842 24.5812 10.1957V10.1966ZM13.0011 17.9941V12.0067L18.2171 15.0009L13.0011 17.9941Z" fill="#FF0C0C"/>
</svg>
