<svg width="34" height="34" viewBox="0 0 34 34" fill="none" xmlns="http://www.w3.org/2000/svg">
<path d="M32 17C32 25.2843 25.2843 32 17 32C8.71573 32 2 25.2843 2 17C2 8.71573 8.71573 2 17 2C25.2843 2 32 8.71573 32 17Z" fill="#FCFCFC" fill-opacity="0.8"/>
<g filter="url(#filter0_f)">
<path d="M6.7998 27.2002L8.28365 21.8092C7.37129 20.2317 6.885 18.4398 6.89002 16.6079C6.89002 10.8674 11.5823 6.2002 17.3474 6.2002C20.1447 6.2002 22.7716 7.28341 24.7418 9.2501C26.7169 11.2168 27.8048 13.8324 27.7998 16.6129C27.7998 22.3533 23.1075 27.0205 17.3424 27.0205H17.3374C15.5878 27.0205 13.8683 26.5813 12.3393 25.7526L6.7998 27.2002ZM12.6 23.8657L12.9158 24.0555C14.2493 24.8441 15.7783 25.2584 17.3374 25.2634H17.3424C22.13 25.2634 26.0301 21.3849 26.0301 16.6129C26.0301 14.3017 25.1277 12.1303 23.4885 10.493C21.8492 8.85573 19.6634 7.95726 17.3424 7.95726C12.5498 7.95726 8.64961 11.8358 8.64961 16.6078C8.64961 18.2401 9.10579 19.8324 9.97811 21.2102L10.1836 21.5396L9.30638 24.7293L12.6 23.8657Z" fill="black" fill-opacity="0.24"/>
</g>
<path d="M7.27441 26.6437L8.69036 21.5019C7.81725 19.9938 7.35795 18.2835 7.35857 16.5427C7.35857 11.0707 11.8342 6.61914 17.3247 6.61914C19.9932 6.61914 22.4935 7.65438 24.3748 9.52763C26.2561 11.401 27.2909 13.8954 27.2909 16.5476C27.2909 22.0196 22.8153 26.4711 17.3248 26.4711H17.3198C15.6513 26.4711 14.0126 26.0521 12.557 25.2633L7.27441 26.6438V26.6437Z" fill="url(#paint0_linear)"/>
<path d="M6.91357 27.003L8.37899 21.6789C7.47796 20.1211 6.99765 18.3513 7.00267 16.5422C7.00267 10.873 11.6367 6.26367 17.3303 6.26367C20.0928 6.26367 22.687 7.33336 24.6328 9.27568C26.5834 11.218 27.6578 13.8012 27.6529 16.5471C27.6529 22.2162 23.0188 26.8255 17.3252 26.8255H17.3204C15.5958 26.8249 13.8989 26.3944 12.3843 25.5734L6.91357 27.0031V27.003ZM12.6417 23.7099L12.9536 23.8973C14.2706 24.6762 15.7806 25.0854 17.3204 25.0903H17.3253C22.0534 25.0903 25.9052 21.2599 25.9052 16.5471C25.9052 14.2646 25.014 12.1202 23.3951 10.5032C21.7761 8.8863 19.6175 7.99894 17.3253 7.99894C12.5922 7.99894 8.74046 11.8293 8.74046 16.5422C8.74046 18.1542 9.19093 19.7268 10.0524 21.0873L10.2554 21.4127L9.38901 24.5628L12.6417 23.7099Z" fill="white"/>
<path d="M14.7452 12.2387C14.552 11.8098 14.349 11.7999 14.1659 11.7949C14.0174 11.79 13.8442 11.79 13.6708 11.79C13.4976 11.79 13.2203 11.8541 12.9827 12.1104C12.745 12.3668 12.0815 12.988 12.0815 14.255C12.0815 15.5169 13.0074 16.7395 13.1361 16.912C13.2648 17.0846 14.9234 19.7614 17.5424 20.7917C19.7208 21.6495 20.1664 21.4769 20.6367 21.4326C21.112 21.3882 22.1616 20.8114 22.3794 20.21C22.5923 19.6086 22.5923 19.0959 22.528 18.9874C22.4636 18.8789 22.2903 18.8149 22.0328 18.6867C21.7754 18.5585 20.508 17.9374 20.2704 17.8487C20.0327 17.76 19.8595 17.7205 19.6911 17.9768C19.5178 18.2331 19.0228 18.8099 18.8742 18.9825C18.7257 19.155 18.5722 19.1748 18.3147 19.0466C18.0573 18.9185 17.2256 18.6472 16.2404 17.7698C15.473 17.0895 14.9531 16.2465 14.8045 15.9902C14.656 15.7338 14.7897 15.5957 14.9184 15.4676C15.0323 15.3542 15.1759 15.1669 15.3047 15.019C15.4334 14.8711 15.4779 14.7627 15.5621 14.5901C15.6462 14.4176 15.6066 14.2697 15.5423 14.1415C15.4779 14.0133 14.9729 12.7464 14.7452 12.2387Z" fill="white"/>
<defs>
<filter id="filter0_f" x="0.799805" y="0.200195" width="33" height="33" filterUnits="userSpaceOnUse" color-interpolation-filters="sRGB">
<feFlood flood-opacity="0" result="BackgroundImageFix"/>
<feBlend mode="normal" in="SourceGraphic" in2="BackgroundImageFix" result="shape"/>
<feGaussianBlur stdDeviation="3" result="effect1_foregroundBlur"/>
</filter>
<linearGradient id="paint0_linear" x1="17.2823" y1="26.6424" x2="17.2823" y2="6.61794" gradientUnits="userSpaceOnUse">
<stop stop-color="#20B038"/>
<stop offset="1" stop-color="#60D66A"/>
</linearGradient>
</defs>
</svg>
