<svg width="30" height="30" viewBox="0 0 30 30" fill="none" xmlns="http://www.w3.org/2000/svg">
<path d="M30 15C30 23.2843 23.2843 30 15 30C6.71573 30 0 23.2843 0 15C0 6.71573 6.71573 0 15 0C23.2843 0 30 6.71573 30 15Z" fill="#FCFCFC" fill-opacity="0.8"/>
<path d="M15 6C17.4453 6 17.7504 6.009 18.7098 6.054C19.6683 6.099 20.3208 6.2493 20.895 6.4725C21.489 6.7011 21.9894 7.0107 22.4898 7.5102C22.9474 7.96011 23.3016 8.50433 23.5275 9.105C23.7498 9.6783 23.901 10.3317 23.946 11.2902C23.9883 12.2496 24 12.5547 24 15C24 17.4453 23.991 17.7504 23.946 18.7098C23.901 19.6683 23.7498 20.3208 23.5275 20.895C23.3022 21.496 22.948 22.0404 22.4898 22.4898C22.0398 22.9473 21.4956 23.3014 20.895 23.5275C20.3217 23.7498 19.6683 23.901 18.7098 23.946C17.7504 23.9883 17.4453 24 15 24C12.5547 24 12.2496 23.991 11.2902 23.946C10.3317 23.901 9.6792 23.7498 9.105 23.5275C8.50409 23.302 7.95977 22.9479 7.5102 22.4898C7.05247 22.04 6.69834 21.4957 6.4725 20.895C6.2493 20.3217 6.099 19.6683 6.054 18.7098C6.0117 17.7504 6 17.4453 6 15C6 12.5547 6.009 12.2496 6.054 11.2902C6.099 10.3308 6.2493 9.6792 6.4725 9.105C6.69771 8.50396 7.05192 7.95959 7.5102 7.5102C7.9599 7.05231 8.50419 6.69816 9.105 6.4725C9.6792 6.2493 10.3308 6.099 11.2902 6.054C12.2496 6.0117 12.5547 6 15 6ZM15 10.5C13.8065 10.5 12.6619 10.9741 11.818 11.818C10.9741 12.6619 10.5 13.8065 10.5 15C10.5 16.1935 10.9741 17.3381 11.818 18.182C12.6619 19.0259 13.8065 19.5 15 19.5C16.1935 19.5 17.3381 19.0259 18.182 18.182C19.0259 17.3381 19.5 16.1935 19.5 15C19.5 13.8065 19.0259 12.6619 18.182 11.818C17.3381 10.9741 16.1935 10.5 15 10.5ZM20.85 10.275C20.85 9.97663 20.7315 9.69048 20.5205 9.47951C20.3095 9.26853 20.0234 9.15 19.725 9.15C19.4266 9.15 19.1405 9.26853 18.9295 9.47951C18.7185 9.69048 18.6 9.97663 18.6 10.275C18.6 10.5734 18.7185 10.8595 18.9295 11.0705C19.1405 11.2815 19.4266 11.4 19.725 11.4C20.0234 11.4 20.3095 11.2815 20.5205 11.0705C20.7315 10.8595 20.85 10.5734 20.85 10.275ZM15 12.3C15.7161 12.3 16.4028 12.5845 16.9092 13.0908C17.4155 13.5972 17.7 14.2839 17.7 15C17.7 15.7161 17.4155 16.4028 16.9092 16.9092C16.4028 17.4155 15.7161 17.7 15 17.7C14.2839 17.7 13.5972 17.4155 13.0908 16.9092C12.5845 16.4028 12.3 15.7161 12.3 15C12.3 14.2839 12.5845 13.5972 13.0908 13.0908C13.5972 12.5845 14.2839 12.3 15 12.3Z" fill="url(#paint0_linear)"/>
<defs>
<linearGradient id="paint0_linear" x1="6" y1="6" x2="24" y2="24" gradientUnits="userSpaceOnUse">
<stop stop-color="#F34744"/>
<stop offset="1" stop-color="#FF6CC4" stop-opacity="0.9"/>
</linearGradient>
</defs>
</svg>
