<svg width="30" height="30" viewBox="0 0 30 30" fill="none" xmlns="http://www.w3.org/2000/svg">
<circle cx="15" cy="15" r="15" fill="#FCFCFC" fill-opacity="0.8"/>
<path d="M15 7C18.8662 7 22 10.1323 22 13.9965C22 16.9529 19.9215 20.1749 15.8185 23.6968C15.5903 23.8927 15.2994 24.0003 14.9987 24C14.6979 23.9997 14.4072 23.8916 14.1794 23.6954L13.908 23.46C9.98656 20.0299 8 16.8869 8 13.9965C8 10.1323 11.1338 7 15 7ZM15 11.3055C14.286 11.3055 13.6012 11.589 13.0963 12.0937C12.5913 12.5983 12.3077 13.2828 12.3077 13.9965C12.3077 14.7101 12.5913 15.3946 13.0963 15.8992C13.6012 16.4039 14.286 16.6874 15 16.6874C15.714 16.6874 16.3988 16.4039 16.9037 15.8992C17.4087 15.3946 17.6923 14.7101 17.6923 13.9965C17.6923 13.2828 17.4087 12.5983 16.9037 12.0937C16.3988 11.589 15.714 11.3055 15 11.3055Z" fill="#C5221F"/>
</svg>
