<svg width="40" height="40" viewBox="0 0 40 40" fill="none" xmlns="http://www.w3.org/2000/svg">
<circle cx="20" cy="20" r="20" fill="#FCFCFC"/>
<path d="M20.5 8C26.2992 8 31 12.2378 31 17.4658C31 21.4657 27.8823 25.8248 21.7277 30.5898C21.3855 30.8548 20.9491 31.0004 20.498 31C20.0468 30.9996 19.6108 30.8534 19.2691 30.5878L18.862 30.2694C12.9798 25.6287 10 21.3764 10 17.4658C10 12.2378 14.7008 8 20.5 8ZM20.5 13.8251C19.4289 13.8251 18.4017 14.2087 17.6444 14.8914C16.887 15.5742 16.4615 16.5002 16.4615 17.4658C16.4615 18.4314 16.887 19.3574 17.6444 20.0402C18.4017 20.7229 19.4289 21.1065 20.5 21.1065C21.5711 21.1065 22.5983 20.7229 23.3556 20.0402C24.113 19.3574 24.5385 18.4314 24.5385 17.4658C24.5385 16.5002 24.113 15.5742 23.3556 14.8914C22.5983 14.2087 21.5711 13.8251 20.5 13.8251Z" fill="#C5221F"/>
</svg>
