<svg width="30" height="30" viewBox="0 0 30 30" fill="none" xmlns="http://www.w3.org/2000/svg">
<path d="M30 15C30 23.2843 23.2843 30 15 30C6.71573 30 0 23.2843 0 15C0 6.71573 6.71573 0 15 0C23.2843 0 30 6.71573 30 15Z" fill="#FCFCFC" fill-opacity="0.8"/>
<path d="M10.0909 21.6003V13.875L7.93408 11.6831L6 10.4668V20.237C6 20.9913 6.55019 21.6003 7.2273 21.6003H10.0909Z" fill="#4285F4"/>
<path d="M19.9092 21.6002H22.7728C23.4519 21.6002 24.0001 20.989 24.0001 20.2369V10.4668L21.8094 11.8599L19.9092 13.8749V21.6002Z" fill="#34A853"/>
<path d="M10.0913 13.8743L9.79785 10.8558L10.0913 7.9668L15.0004 12.0567L19.9095 7.9668L20.2378 10.6998L19.9095 13.8743L15.0004 17.9642L10.0913 13.8743Z" fill="#EA4335"/>
<path d="M19.9092 7.96673V13.8742L24.0001 10.4661V8.64835C24.0001 6.96246 22.2676 6.00138 21.0547 7.01245L19.9092 7.96673Z" fill="#FBBC04"/>
<path d="M6 10.4661L7.88149 12.0337L10.0909 13.8743V7.96676L8.94538 7.01248C7.73039 6.00134 6 6.96249 6 8.6483V10.466V10.4661Z" fill="#C5221F"/>
</svg>
