<svg width="30" height="30" viewBox="0 0 30 30" fill="none" xmlns="http://www.w3.org/2000/svg">
<path d="M30 15C30 23.2843 23.2843 30 15 30C6.71573 30 0 23.2843 0 15C0 6.71573 6.71573 0 15 0C23.2843 0 30 6.71573 30 15Z" fill="#FCFCFC" fill-opacity="0.8"/>
<path d="M24 14.7218C24 9.90737 19.968 6 15 6C10.032 6 6 9.90737 6 14.7218C6 18.9432 9.096 22.458 13.2 23.2692V17.3383H11.4V14.7218H13.2V12.5414C13.2 10.858 14.613 9.48872 16.35 9.48872H18.6V12.1053H16.8C16.305 12.1053 15.9 12.4977 15.9 12.9774V14.7218H18.6V17.3383H15.9V23.4C20.445 22.9639 24 19.2484 24 14.7218Z" fill="#136AFB"/>
</svg>
