<svg width="30" height="25" viewBox="0 0 30 25" fill="none" xmlns="http://www.w3.org/2000/svg">
<path d="M6.81819 25.0002V12.1246L3.22347 8.47154L0 6.44434V22.728C0 23.9852 0.91699 25.0002 2.0455 25.0002H6.81819Z" fill="#4285F4"/>
<path d="M23.1819 25H27.9546C29.0865 25 30.0001 23.9813 30.0001 22.7278V6.44434L26.349 8.76626L23.1819 12.1245V25Z" fill="#34A853"/>
<path d="M6.81849 12.1247L6.32935 7.09383L6.81849 2.27881L15.0003 9.09526L23.182 2.27881L23.7293 6.83387L23.182 12.1247L15.0003 18.9411L6.81849 12.1247Z" fill="#EA4335"/>
<path d="M23.1819 2.27902V12.1249L30.0001 6.4446V3.41505C30.0001 0.605238 27.1126 -0.996557 25.0911 0.688549L23.1819 2.27902Z" fill="#FBBC04"/>
<path d="M0 6.44417L3.13581 9.05677L6.81819 12.1245V2.27859L4.90897 0.688121C2.88398 -0.997116 0 0.604809 0 3.41449V6.44404V6.44417Z" fill="#C5221F"/>
</svg>
