<svg width="40" height="40" viewBox="0 0 40 40" fill="none" xmlns="http://www.w3.org/2000/svg">
<path d="M20 0C16.0444 0 12.1776 1.17298 8.8886 3.37061C5.59962 5.56823 3.03617 8.69181 1.52242 12.3463C0.00866572 16.0009 -0.387401 20.0222 0.384303 23.9018C1.15601 27.7814 3.06082 31.3451 5.85787 34.1421C8.65492 36.9392 12.2186 38.844 16.0982 39.6157C19.9778 40.3874 23.9992 39.9913 27.6537 38.4776C31.3082 36.9638 34.4318 34.4004 36.6294 31.1114C38.827 27.8224 40 23.9556 40 20C40 14.6957 37.8929 9.60859 34.1421 5.85786C30.3914 2.10714 25.3043 0 20 0ZM16.6667 8.58333C16.6667 7.92406 16.8622 7.27959 17.2284 6.73143C17.5947 6.18327 18.1153 5.75603 18.7244 5.50373C19.3335 5.25144 20.0037 5.18543 20.6503 5.31405C21.2969 5.44267 21.8909 5.76013 22.357 6.22631C22.8232 6.69248 23.1407 7.28643 23.2693 7.93303C23.3979 8.57963 23.3319 9.24986 23.0796 9.85894C22.8273 10.468 22.4001 10.9886 21.8519 11.3549C21.3037 11.7212 20.6593 11.9167 20 11.9167C19.5484 11.9393 19.097 11.8698 18.6732 11.7124C18.2493 11.555 17.8619 11.3131 17.5345 11.0013C17.2071 10.6895 16.9465 10.3143 16.7687 9.89865C16.5909 9.48297 16.4994 9.03546 16.5 8.58333H16.6667ZM28.3333 30C28.3333 30.442 28.1577 30.8659 27.8452 31.1785C27.5326 31.4911 27.1087 31.6667 26.6667 31.6667H15C14.558 31.6667 14.1341 31.4911 13.8215 31.1785C13.5089 30.8659 13.3333 30.442 13.3333 30C13.3333 29.558 13.5089 29.134 13.8215 28.8215C14.1341 28.5089 14.558 28.3333 15 28.3333H18.3333V18.3333H16.6667C16.2246 18.3333 15.8007 18.1577 15.4882 17.8452C15.1756 17.5326 15 17.1087 15 16.6667C15 16.2246 15.1756 15.8007 15.4882 15.4882C15.8007 15.1756 16.2246 15 16.6667 15H23.3333V28.3333H26.6667C27.1087 28.3333 27.5326 28.5089 27.8452 28.8215C28.1577 29.134 28.3333 29.558 28.3333 30Z" fill="#FBBC04"/>
</svg>
