<svg width="50" height="50" viewBox="0 0 50 50" fill="none" xmlns="http://www.w3.org/2000/svg">
<path d="M25 0C11.215 0 0 11.215 0 25C0 38.785 11.215 50 25 50C38.785 50 50 38.785 50 25C50 11.215 38.785 0 25 0ZM15 17.5C20.5025 17.5 22.5 21.985 22.5 25H17.5C17.47 23.875 17.015 22.5 15 22.5C12.985 22.5 12.53 23.875 12.5 25.03L7.5 25C7.5 21.985 9.4975 17.5 15 17.5ZM25 40C15 40 12.5 30 12.5 30H37.5C37.5 30 35 40 25 40ZM37.5 25C37.47 23.875 37.015 22.5 35 22.5C32.985 22.5 32.53 23.875 32.5 25.03L27.5 25C27.5 21.985 29.4975 17.5 35 17.5C40.5025 17.5 42.5 21.985 42.5 25H37.5Z" fill="#FF7A00"/>
</svg>
