<svg width="20" height="20" viewBox="0 0 20 20" fill="none" xmlns="http://www.w3.org/2000/svg">
<path d="M17.8947 9.47251H20C20 4.07258 15.9232 0 10.5159 0V2.10524C14.7916 2.10524 17.8947 5.20309 17.8947 9.47251Z" fill="#1E9450"/>
<path d="M10.5265 6.31608C12.7401 6.31608 13.6843 7.26028 13.6843 9.47394H15.7896C15.7896 6.07924 13.9212 4.21084 10.5265 4.21084V6.31608ZM14.1285 12.0455C13.9263 11.8616 13.6605 11.7636 13.3873 11.772C13.1141 11.7805 12.8549 11.8948 12.6644 12.0907L10.1454 14.6812C9.53913 14.5655 8.32019 14.1855 7.06547 12.9339C5.81075 11.6781 5.43076 10.456 5.31813 9.85393L7.90652 7.33396C8.10274 7.14357 8.21718 6.88431 8.22563 6.61103C8.23408 6.33776 8.13586 6.07192 7.95178 5.86977L4.06235 1.59298C3.87819 1.3902 3.62223 1.2672 3.34884 1.2501C3.07544 1.233 2.80615 1.32315 2.59816 1.5014L0.313977 3.46033C0.131991 3.64297 0.0233697 3.88606 0.00871775 4.14348C-0.00707153 4.40663 -0.30812 10.6402 4.5255 15.476C8.74229 19.6917 14.0243 20.0001 15.4791 20.0001C15.6917 20.0001 15.8222 19.9938 15.8569 19.9917C16.1143 19.9773 16.3573 19.8682 16.539 19.6854L18.4969 17.4002C18.6753 17.1923 18.7656 16.9231 18.7487 16.6497C18.7318 16.3763 18.609 16.1203 18.4064 15.936L14.1285 12.0455Z" fill="#1E9450"/>
</svg>
