<svg width="21" height="23" viewBox="0 0 21 23" fill="none" xmlns="http://www.w3.org/2000/svg">
<path d="M10.5 0C16.2992 0 21 4.23777 21 9.4658C21 13.4657 17.8823 17.8248 11.7277 22.5898C11.3855 22.8548 10.9491 23.0004 10.498 23C10.0468 22.9996 9.61078 22.8534 9.26908 22.5878L8.862 22.2694C2.97985 17.6287 0 13.3764 0 9.4658C0 4.23777 4.70077 0 10.5 0ZM10.5 5.82511C9.42893 5.82511 8.40174 6.20868 7.64438 6.89144C6.88702 7.5742 6.46154 8.50023 6.46154 9.4658C6.46154 10.4314 6.88702 11.3574 7.64438 12.0402C8.40174 12.7229 9.42893 13.1065 10.5 13.1065C11.5711 13.1065 12.5983 12.7229 13.3556 12.0402C14.113 11.3574 14.5385 10.4314 14.5385 9.4658C14.5385 8.50023 14.113 7.5742 13.3556 6.89144C12.5983 6.20868 11.5711 5.82511 10.5 5.82511Z" fill="#C5221F"/>
</svg>
