<svg width="50" height="50" viewBox="0 0 50 50" fill="none" xmlns="http://www.w3.org/2000/svg">
<path d="M46.5587 28.0305C49.5516 22.3289 43.468 18.375 35.5141 16.4359C36.1126 15.0758 36.286 13.2953 34.5985 11.5953C32.4344 9.41953 33.8727 6.25 33.8727 6.25C33.8727 6.25 29.3305 10.4398 32.1985 13.3289C33.2563 14.3938 33.8071 15.3289 34.0704 16.1109C31.8746 15.6583 29.6512 15.3519 27.4149 15.1938C28.0829 13.3781 28.1477 11.0977 26.043 8.91406C23.1618 5.92109 25.0805 1.5625 25.0805 1.5625C25.0805 1.5625 19.0235 7.32344 22.8477 11.2953C24.2438 12.7438 24.979 14.0188 25.3352 15.0875C22.9649 15.0164 20.6837 15.1203 18.6571 15.4039C18.8985 14.2359 18.6969 12.893 17.4087 11.5961C15.2446 9.42031 16.6837 6.25 16.6837 6.25C16.6837 6.25 12.1407 10.4398 15.0094 13.3289C15.9079 14.2336 16.4344 15.0414 16.7368 15.7453C16.3946 15.8203 16.0626 15.9016 15.743 15.9898C5.86647 15.0656 1.55866 17.1063 3.52663 21.1094C0.0922537 24.5438 1.38288 28.4633 5.68053 31.4625C7.92272 40.6977 8.50006 48.4375 25.3876 48.4375C40.4563 48.4375 42.5383 42.2734 44.4048 34.3844C50.0048 33.2695 48.8118 30.5852 46.5587 28.0305ZM45.1626 27.1078C43.2868 31.1078 35.1462 34.1188 25.3876 34.1188C15.6298 34.1188 7.48913 31.1078 5.61257 27.1078C5.57272 26.9891 5.53444 26.8656 5.49616 26.7453C6.38991 24.4781 9.2946 22.5109 13.3743 21.1938C12.4157 22.1203 12.2165 23.5039 14.7391 23.9891C15.461 24.1281 17.443 23.6469 16.5766 21.1875C16.4555 20.8438 16.2579 20.6133 16.0149 20.4742C18.818 19.8328 22.0001 19.4633 25.3876 19.4633C25.7673 19.4633 26.1399 19.4766 26.5141 19.4852C24.5594 20.1789 22.9649 22.3164 26.9563 22.9469C27.8376 23.0859 30.2571 22.6047 29.1993 20.1453C29.1069 19.9261 28.9587 19.7349 28.7696 19.5906C32.5094 19.8656 35.8977 20.5859 38.6368 21.6242C36.2282 21.4898 33.5563 22.9742 37.8352 25.0641C38.7532 25.5125 41.5423 25.9242 41.1587 23.2086C41.1309 23.0124 41.0617 22.8244 40.9555 22.657C43.1454 23.8109 44.6727 25.2102 45.2782 26.7453L45.1626 27.1078Z" fill="#FF7A00"/>
<path d="M20.1851 28.7819C22.7109 28.7819 24.3952 26.4983 25.7148 25.6046C27.5585 24.3546 32.1945 23.8671 28.1117 23.7686C24.239 23.6757 19.4577 26.8194 16.2624 26.603C10.9718 26.2436 16.3906 28.7819 20.1851 28.7819Z" fill="#FF7A00"/>
<path d="M25.6431 33.4476C26.5353 33.6194 28.9876 33.0241 27.915 29.9827C26.7032 26.5413 19.3681 32.2397 25.6431 33.4476Z" fill="#FF7A00"/>
<path d="M11.7553 25.9197C10.9029 24.7166 9.66701 23.1908 9.15529 23.9854C8.45607 25.0721 8.23576 27.2588 8.74357 27.3557C12.7248 28.119 12.4459 26.894 11.7553 25.9197Z" fill="#FF7A00"/>
<path d="M34.8999 26.4071C35.6179 25.5181 34.1843 23.3782 33.264 23.7525C31.8234 24.3384 30.9929 23.9415 30.3601 24.8306C28.8781 26.9126 33.9242 27.6142 34.8999 26.4071Z" fill="#FF7A00"/>
<path d="M34.4515 28.9557C33.4187 28.5002 33.6625 30.026 32.1367 28.8018C31.0445 27.9252 28.6945 30.1362 30.2445 31.6377C31.9695 33.3088 32.4289 31.7205 33.1539 31.8541C34.6273 32.1252 37.1609 30.151 34.4515 28.9557Z" fill="#FF7A00"/>
<path d="M17.2782 29.4771C16.7399 28.9475 16.018 29.5865 15.6102 30.3662C15.2063 30.1678 14.8774 30.1217 14.8774 30.1217C14.5688 29.242 13.6508 28.6389 13.6508 28.6389C13.6508 28.6389 13.7344 29.5537 13.8555 29.9998C12.8415 29.6396 12.8102 27.8271 12.8102 27.8271C12.8102 27.8271 12.1297 28.2342 12.1915 28.9256C11.075 28.0248 10.1243 28.4459 10.1243 28.4459C10.1243 28.4459 11.5407 29.2428 11.736 29.7803C10.9407 29.842 10.4766 30.117 10.2063 30.7568C10.2071 30.7623 11.7782 30.0092 12.9407 30.5529C12.4821 30.9279 12.7102 31.8646 12.7102 31.8646C13.7922 30.7178 14.6563 30.8404 15.3477 31.0459C15.2641 31.3967 15.2696 31.717 15.418 31.9115C16.6172 33.4881 20.7946 33.1334 21.9165 31.9678C23.275 30.5576 19.5 31.6639 17.2782 29.4771Z" fill="#FF7A00"/>
<path d="M20.2291 23.5393C19.8736 24.2533 19.8712 24.7924 20.2822 25.3533C20.2876 25.3549 20.4478 23.6205 21.5111 22.9018C21.5978 23.4877 22.5181 23.7721 22.5181 23.7721C21.7822 21.1658 23.9306 21.0299 23.9205 20.0947C22.7814 20.1908 22.1345 21.0189 22.1345 21.0189C21.2212 20.8322 20.2314 21.3096 20.2314 21.3096C20.2314 21.3096 21.0603 21.7072 21.5048 21.833C20.6751 22.5182 19.1033 21.6143 19.1033 21.6143C19.1033 21.6143 19.1033 22.408 19.7283 22.7088C18.3822 23.2049 18.2556 24.2361 18.2556 24.2361C18.2556 24.2361 19.6666 23.4307 20.2291 23.5393Z" fill="#FF7A00"/>
<path d="M40.1905 27.098C40.514 26.484 40.0421 25.8457 40.0421 25.8457C40.0421 25.8457 39.3163 27.5074 38.2421 27.4504C38.5249 27.0848 38.9546 26.2723 38.9546 26.2723C38.9546 26.2723 37.8749 26.4777 37.2515 27.1707C37.2515 27.1707 36.239 26.8902 35.2671 27.4902C35.8155 28.248 37.6233 27.0785 38.5819 29.6113C38.5819 29.6113 39.1522 28.8355 38.8733 28.3129C40.1562 28.2574 41.3171 29.5559 41.321 29.5512C41.3163 28.8559 40.9944 28.4246 40.2827 28.0621C40.6702 27.641 42.2843 27.4496 42.2843 27.4496C42.2843 27.4496 41.5687 26.6957 40.1905 27.098Z" fill="#FF7A00"/>
</svg>
