<svg width="40" height="45" viewBox="0 0 40 45" fill="none" xmlns="http://www.w3.org/2000/svg">
<path d="M11.4285 19.2855V12.8569H28.5713V19.2855H11.4285Z" fill="#FF7A00"/>
<path d="M40 8.03571C40 5.90451 39.2475 3.86059 37.9079 2.35361C36.5684 0.846617 34.7515 0 32.8571 0H7.14286C5.24845 0 3.43164 0.846617 2.09209 2.35361C0.752549 3.86059 0 5.90451 0 8.03571V36.9643C0 39.0955 0.752549 41.1394 2.09209 42.6464C3.43164 44.1534 5.24845 45 7.14286 45H32.8571C34.7515 45 36.5684 44.1534 37.9079 42.6464C39.2475 41.1394 40 39.0955 40 36.9643V8.03571ZM10 9.64286H30C30.3789 9.64286 30.7422 9.81218 31.0102 10.1136C31.2781 10.415 31.4286 10.8238 31.4286 11.25V20.8929C31.4286 21.3191 31.2781 21.7279 31.0102 22.0293C30.7422 22.3307 30.3789 22.5 30 22.5H10C9.62112 22.5 9.25776 22.3307 8.98985 22.0293C8.72194 21.7279 8.57143 21.3191 8.57143 20.8929V11.25C8.57143 10.8238 8.72194 10.415 8.98985 10.1136C9.25776 9.81218 9.62112 9.64286 10 9.64286Z" fill="#FF7A00"/>
</svg>
