<svg width="45" height="45" viewBox="0 0 45 45" fill="none" xmlns="http://www.w3.org/2000/svg">
<path d="M22.5 0C10.08 0 0 10.08 0 22.5C0 34.92 10.08 45 22.5 45C34.92 45 45 34.92 45 22.5C45 10.08 34.92 0 22.5 0ZM13.5 34.875C12.0082 34.875 10.5774 34.2824 9.52252 33.2275C8.46763 32.1726 7.875 30.7418 7.875 29.25C7.875 27.7582 8.46763 26.3274 9.52252 25.2725C10.5774 24.2176 12.0082 23.625 13.5 23.625C14.9918 23.625 16.4226 24.2176 17.4775 25.2725C18.5324 26.3274 19.125 27.7582 19.125 29.25C19.125 30.7418 18.5324 32.1726 17.4775 33.2275C16.4226 34.2824 14.9918 34.875 13.5 34.875ZM16.875 13.5C16.875 12.0082 17.4676 10.5774 18.5225 9.52252C19.5774 8.46763 21.0082 7.875 22.5 7.875C23.9918 7.875 25.4226 8.46763 26.4775 9.52252C27.5324 10.5774 28.125 12.0082 28.125 13.5C28.125 14.9918 27.5324 16.4226 26.4775 17.4775C25.4226 18.5324 23.9918 19.125 22.5 19.125C21.0082 19.125 19.5774 18.5324 18.5225 17.4775C17.4676 16.4226 16.875 14.9918 16.875 13.5ZM31.5 34.875C30.0082 34.875 28.5774 34.2824 27.5225 33.2275C26.4676 32.1726 25.875 30.7418 25.875 29.25C25.875 27.7582 26.4676 26.3274 27.5225 25.2725C28.5774 24.2176 30.0082 23.625 31.5 23.625C32.9918 23.625 34.4226 24.2176 35.4775 25.2725C36.5324 26.3274 37.125 27.7582 37.125 29.25C37.125 30.7418 36.5324 32.1726 35.4775 33.2275C34.4226 34.2824 32.9918 34.875 31.5 34.875Z" fill="#FF7A00"/>
</svg>
