<svg width="30" height="30" viewBox="0 0 30 30" fill="none" xmlns="http://www.w3.org/2000/svg">
<circle cx="15" cy="15" r="15" fill="#FBBC04"/>
<path d="M22.247 9.179C23.277 10.273 23.83 11.5 23.83 13.489C23.83 16.989 21.373 20.126 17.8 21.677L16.907 20.299C20.242 18.495 20.894 16.154 21.154 14.678C20.617 14.956 19.914 15.053 19.225 14.989C17.421 14.822 15.999 13.341 15.999 11.5C15.999 10.5717 16.3677 9.6815 17.0241 9.02513C17.6805 8.36875 18.5707 8 19.499 8C20.572 8 21.598 8.49 22.247 9.179ZM12.247 9.179C13.277 10.273 13.83 11.5 13.83 13.489C13.83 16.989 11.373 20.126 7.8 21.677L6.907 20.299C10.242 18.495 10.894 16.154 11.154 14.678C10.617 14.956 9.914 15.053 9.225 14.989C7.421 14.822 6 13.341 6 11.5C6 10.5717 6.36875 9.6815 7.02513 9.02513C7.6815 8.36875 8.57174 8 9.5 8C10.573 8 11.599 8.49 12.248 9.179H12.247Z" fill="#FCFCFC"/>
</svg>
