<svg width="50" height="40" viewBox="0 0 50 40" fill="none" xmlns="http://www.w3.org/2000/svg">
<path d="M15 20C19.8359 20 23.75 15.5268 23.75 10C23.75 4.47321 19.8359 0 15 0C10.1641 0 6.25 4.47321 6.25 10C6.25 15.5268 10.1641 20 15 20ZM21 22.8571H20.3516C18.7266 23.75 16.9219 24.2857 15 24.2857C13.0781 24.2857 11.2812 23.75 9.64844 22.8571H9C4.03125 22.8571 0 27.4643 0 33.1429V35.7143C0 38.0804 1.67969 40 3.75 40H26.25C28.3203 40 30 38.0804 30 35.7143V33.1429C30 27.4643 25.9687 22.8571 21 22.8571ZM37.5 20C41.6406 20 45 16.1607 45 11.4286C45 6.69643 41.6406 2.85714 37.5 2.85714C33.3594 2.85714 30 6.69643 30 11.4286C30 16.1607 33.3594 20 37.5 20ZM41.25 22.8571H40.9531C39.8672 23.2857 38.7188 23.5714 37.5 23.5714C36.2812 23.5714 35.1328 23.2857 34.0469 22.8571H33.75C32.1562 22.8571 30.6875 23.3839 29.3984 24.2321C31.3047 26.5804 32.5 29.6964 32.5 33.1429V36.5714C32.5 36.7679 32.4609 36.9554 32.4531 37.1429H46.25C48.3203 37.1429 50 35.2232 50 32.8571C50 27.3304 46.0859 22.8571 41.25 22.8571Z" fill="#FF7A00"/>
</svg>
